<?xml version="1.0" encoding="UTF-8" standalone="no"?>
<svg
   version="1"
   viewBox="0 0 98.545 100"
   id="svg8951"
   sodipodi:docname="nurse_white.svg"
   inkscape:version="1.2.2 (b0a8486541, 2022-12-01)"
   xmlns:inkscape="http://www.inkscape.org/namespaces/inkscape"
   xmlns:sodipodi="http://sodipodi.sourceforge.net/DTD/sodipodi-0.dtd"
   xmlns="http://www.w3.org/2000/svg"
   xmlns:svg="http://www.w3.org/2000/svg">
  <defs
     id="defs8955" />
  <sodipodi:namedview
     id="namedview8953"
     pagecolor="#ffffff"
     bordercolor="#000000"
     borderopacity="0.25"
     inkscape:showpageshadow="2"
     inkscape:pageopacity="0.0"
     inkscape:pagecheckerboard="0"
     inkscape:deskcolor="#d1d1d1"
     showgrid="false"
     inkscape:zoom="6.6708471"
     inkscape:cx="46.920578"
     inkscape:cy="46.246001"
     inkscape:window-width="1916"
     inkscape:window-height="1006"
     inkscape:window-x="0"
     inkscape:window-y="72"
     inkscape:window-maximized="1"
     inkscape:current-layer="svg8951" />
  <path
     d="M62.448 32.007c0 7.274-5.905 13.17-13.187 13.17-7.27 0-13.16-5.896-13.16-13.17 0-7.273 5.898-13.17 13.17-13.17 7.284 0 13.19 5.896 13.19 13.17z"
     id="path8947"
     style="fill:#ffffff" />
  <path
     d="M49.283 0c5.845 0 15.414 2.457 20.75 8.29L62.85 22.075a17.095 17.095 0 0 0-13.566-6.665 17.086 17.086 0 0 0-13.452 6.53L28.507 8.594C34.675 2.43 43.187 0 49.283 0zm-2.077 13.205h4.097V9.8h3.41V5.703h-3.41v-3.42h-4.097v3.42h-3.41V9.8h3.41v3.405zm-15.25 55.642h3.375L30.52 85.36h37.64l-4.797-16.513h3.377l4.825 16.512h11.077L75.08 60.34c-1.182-4.13-6.36-11.4-15.296-11.62l-20.547-.018c-9.14.045-14.426 7.458-15.622 11.64L15.908 85.36h11.234l4.815-16.514zM0 90.624h98.545V100H0z"
     id="path8949"
     style="fill:#ffffff" />
</svg>
