<?xml version="1.0" encoding="UTF-8" standalone="no"?>
<svg
   viewBox="0 0 120 120"
   version="1.1"
   id="svg16968"
   sodipodi:docname="sync_red.svg"
   inkscape:export-filename="sync.png"
   inkscape:export-xdpi="96"
   inkscape:export-ydpi="96"
   inkscape:version="1.2.2 (b0a8486541, 2022-12-01)"
   xmlns:inkscape="http://www.inkscape.org/namespaces/inkscape"
   xmlns:sodipodi="http://sodipodi.sourceforge.net/DTD/sodipodi-0.dtd"
   xmlns="http://www.w3.org/2000/svg"
   xmlns:svg="http://www.w3.org/2000/svg">
  <defs
     id="defs16972" />
  <sodipodi:namedview
     id="namedview16970"
     pagecolor="#ffffff"
     bordercolor="#000000"
     borderopacity="0.25"
     inkscape:showpageshadow="2"
     inkscape:pageopacity="0.0"
     inkscape:pagecheckerboard="0"
     inkscape:deskcolor="#d1d1d1"
     showgrid="false"
     inkscape:zoom="5.0646438"
     inkscape:cx="38.699661"
     inkscape:cy="69.600156"
     inkscape:window-width="1916"
     inkscape:window-height="1026"
     inkscape:window-x="0"
     inkscape:window-y="32"
     inkscape:window-maximized="1"
     inkscape:current-layer="svg16968" />
  <path
     d="M 60.318455,89.049132 C 44.300518,89.049132 31.269323,76.017118 31.269323,60 c 0,-16.017937 13.031195,-29.049132 29.049132,-29.049132 11.145047,0 20.839274,6.312254 25.708891,15.547423 H 104.54269 C 98.765594,27.552529 81.157729,13.766875 60.322546,13.766875 34.788769,13.766875 14.089421,34.466222 14.089421,60 c 0,25.532959 20.699348,46.23313 46.233125,46.23313 13.308594,0 25.293202,-5.63145 33.729724,-14.630948 L 81.507955,79.847512 c -5.296761,5.656807 -12.829078,9.20162 -21.177226,9.20162 z"
     id="path16962"
     style="fill:#984800;fill-opacity:1;stroke-width:0.818285" />
  <path
     d="M120 0v45.336M91.418 43.5h22.622"
     fill="none"
     id="path16964" />
  <path
     d="M 109.41558,28.767683 109.4074,67.23528 72.451172,56.573021 Z"
     id="path16966"
     style="fill:#984800;fill-opacity:1;stroke-width:0.818285" />
</svg>
